<?xml version="1.0" encoding="UTF-8" standalone="no"?>
<svg
   xmlns:dc="http://purl.org/dc/elements/1.1/"
   xmlns:cc="http://creativecommons.org/ns#"
   xmlns:rdf="http://www.w3.org/1999/02/22-rdf-syntax-ns#"
   xmlns:svg="http://www.w3.org/2000/svg"
   xmlns="http://www.w3.org/2000/svg"
   xmlns:xlink="http://www.w3.org/1999/xlink"
   xmlns:sodipodi="http://sodipodi.sourceforge.net/DTD/sodipodi-0.dtd"
   xmlns:inkscape="http://www.inkscape.org/namespaces/inkscape"
   version="1.1"
   viewBox="0 0 205.60992 193.89478"
   id="svg38"
   sodipodi:docname="magician-41104.svg"
   inkscape:version="0.92.2 (5c3e80d, 2017-08-06)"
   width="205.60992"
   height="193.89478"
   inkscape:export-filename="/home/jorge/Desktop/magician.png"
   inkscape:export-xdpi="96"
   inkscape:export-ydpi="96">
  <title
     id="title5090">Asistente LADM COL</title>
  <metadata
     id="metadata42">
    <rdf:RDF>
      <cc:Work
         rdf:about="">
        <dc:format>image/svg+xml</dc:format>
        <dc:type
           rdf:resource="http://purl.org/dc/dcmitype/StillImage" />
        <dc:title>Asistente LADM COL</dc:title>
        <dc:date>15-dic-2017</dc:date>
        <dc:creator>
          <cc:Agent>
            <dc:title>Jorge Ulises Useche Cuellar</dc:title>
          </cc:Agent>
        </dc:creator>
        <dc:rights>
          <cc:Agent>
            <dc:title>CC-0</dc:title>
          </cc:Agent>
        </dc:rights>
        <dc:publisher>
          <cc:Agent>
            <dc:title>Jorge Ulises Useche Cuellar</dc:title>
          </cc:Agent>
        </dc:publisher>
        <dc:description>Logo Asistente LADM COL</dc:description>
        <dc:contributor>
          <cc:Agent>
            <dc:title>https://pixabay.com/p-41104/
https://commons.wikimedia.org/wiki/File:Emblem-earth.svg</dc:title>
          </cc:Agent>
        </dc:contributor>
        <dc:identifier>Asistente LADM COL</dc:identifier>
        <dc:subject>
          <rdf:Bag>
            <rdf:li>Asistente</rdf:li>
            <rdf:li>LADM</rdf:li>
            <rdf:li>COL</rdf:li>
            <rdf:li>Land</rdf:li>
            <rdf:li>Administration</rdf:li>
            <rdf:li>Model</rdf:li>
          </rdf:Bag>
        </dc:subject>
      </cc:Work>
    </rdf:RDF>
  </metadata>
  <sodipodi:namedview
     pagecolor="#ffffff"
     bordercolor="#666666"
     borderopacity="1"
     objecttolerance="10"
     gridtolerance="10"
     guidetolerance="10"
     inkscape:pageopacity="0"
     inkscape:pageshadow="2"
     inkscape:window-width="1920"
     inkscape:window-height="1022"
     id="namedview40"
     showgrid="false"
     inkscape:zoom="3.4426172"
     inkscape:cx="29.861184"
     inkscape:cy="129.30016"
     inkscape:window-x="0"
     inkscape:window-y="30"
     inkscape:window-maximized="1"
     inkscape:current-layer="svg38"
     fit-margin-top="0"
     fit-margin-left="0"
     fit-margin-right="0"
     fit-margin-bottom="0" />
  <defs
     id="defs16">
    <linearGradient
       id="a">
      <stop
         stop-color="#000079"
         offset="0"
         id="stop2" />
      <stop
         stop-color="#000079"
         offset="1"
         id="stop4" />
    </linearGradient>
    <linearGradient
       id="c"
       x1="160.36"
       x2="585.08002"
       y1="586.87"
       y2="633.03998"
       gradientTransform="matrix(0.31234,0,0,0.18977,-754.44,492.38)"
       gradientUnits="userSpaceOnUse">
      <stop
         offset="0"
         id="stop7" />
      <stop
         offset=".5"
         id="stop9" />
      <stop
         offset="1"
         id="stop11" />
    </linearGradient>
    <linearGradient
       id="d"
       x1="-722.71002"
       x2="-537.15002"
       y1="572.59003"
       y2="580.20001"
       gradientUnits="userSpaceOnUse"
       xlink:href="#a" />
    <linearGradient
       id="b"
       x1="431.39001"
       x2="477.51001"
       y1="1015.8"
       y2="658.73999"
       gradientTransform="matrix(0.31234,0,0,0.36907,-754.84,368.47)"
       gradientUnits="userSpaceOnUse"
       xlink:href="#a" />
    <linearGradient
       inkscape:collect="always"
       xlink:href="#a"
       id="linearGradient4940"
       gradientUnits="userSpaceOnUse"
       x1="-722.71002"
       y1="572.59003"
       x2="-537.15002"
       y2="580.20001"
       gradientTransform="translate(741.30206,-461.79628)" />
    <linearGradient
       inkscape:collect="always"
       xlink:href="#c"
       id="linearGradient4942"
       gradientUnits="userSpaceOnUse"
       gradientTransform="matrix(0.31234,0,0,0.18977,-13.137936,30.583717)"
       x1="160.36"
       y1="586.87"
       x2="585.08002"
       y2="633.03998" />
    <linearGradient
       inkscape:collect="always"
       xlink:href="#a"
       id="linearGradient4944"
       gradientUnits="userSpaceOnUse"
       gradientTransform="matrix(0.31234,0,0,0.36907,-13.537936,-93.326283)"
       x1="431.39001"
       y1="1015.8"
       x2="477.51001"
       y2="658.73999" />
  </defs>
  <path
     id="path18-4"
     d="m 41.282064,160.72372 c 0,0 35.103,-116.670003 68.342996,-150.350003 13.835,-14.0200004 30.888,-9.1185004 35.68,-5.5552004 13.865,10.3100004 18.971,25.1730004 26.485,37.7380004 -22.012,-5.3217 -14.626,-15.61 -38.861,-13.485 l 14.391,132.230003 -106.039996,-0.57694 z"
     inkscape:connector-curvature="0"
     style="fill:url(#linearGradient4940);fill-rule:evenodd;stroke:#000000;stroke-width:2" />
  <path
     style="fill:#446b9b;fill-opacity:1;fill-rule:evenodd;stroke:none;stroke-width:1.93201411"
     d="m 130.22679,1.8503217 c -6.44984,0.077916 -14.00701,2.2517322 -20.77572,8.9370523 -17.422304,17.205401 -34.597089,57.483277 -47.496924,90.823306 16.572618,24.19413 42.495394,38.12183 70.896604,38.16795 3.91974,-0.037 7.83278,-0.34746 11.71321,-0.92947 L 132.27168,28.767661 c 0.0585,0.156156 0.11417,0.309528 0.172,0.465665 l 0.3096,-0.650069 c 23.09508,-1.841009 16.14539,7.858923 37.52662,12.897079 -7.35237,-11.98303 -12.34984,-26.157892 -25.91661,-35.9903678 -2.34446,-1.6991298 -7.68666,-3.7175719 -14.1365,-3.6396465 z"
     id="path18-8-28"
     inkscape:connector-curvature="0"
     sodipodi:nodetypes="ccccccccccc" />
  <path
     inkscape:connector-curvature="0"
     style="fill:#b0cdea;fill-opacity:1;fill-rule:evenodd;stroke:none;stroke-width:1.93838763"
     d="m 138.67462,5.2207237 a 35.608671,42.050887 0 0 0 -35.60884,42.0509463 35.608671,42.050887 0 0 0 35.60884,42.050945 35.608671,42.050887 0 0 0 0.26245,-0.0112 l -6.75436,-60.597882 c 0.0586,0.156821 0.11443,0.310845 0.1724,0.467647 l 0.31032,-0.652836 c 23.14915,-1.848848 16.18318,7.892384 37.61447,12.951993 C 163.05997,29.690651 158.09987,15.791219 145.11483,5.9465308 a 35.608671,42.050887 0 0 0 -6.44021,-0.7257879 z"
     id="path18-8-7" />
  <path
     style="fill:#4c9409;fill-opacity:1;stroke-width:0.19748649"
     d="m 130.60119,1.8503766 c -6.55361,0.0817 -14.23236,2.3611 -21.10997,9.3711004 -6.42883,6.55171 -12.922375,16.24541 -19.216643,27.5996 0.157725,0.0395 0.261463,0.0601 0.423324,0.10157 2.933523,0.75097 4.003834,1.11204 4.310933,1.45117 0.224687,0.24812 1.55142,2.0672 2.94774,4.04297 1.39632,1.97576 2.621176,3.59581 2.722486,3.59961 0.10866,0.004 0.39805,-2.77102 0.7049,-6.76758 0.38967,-5.07526 0.58901,-6.86338 0.79616,-7.12695 0.15209,-0.19352 2.50583,-2.48077 5.22943,-5.08204 l 4.95174,-4.73046 1.8739,-5.23243 c 1.03058,-2.87782 2.00692,-5.37035 2.171,-5.53906 0.16407,-0.1687 1.89592,-1.03878 3.84877,-1.93555 4.0402,-1.8553004 3.54786,-1.38862 6.41008,-6.0761704 0.90451,-1.48136 1.74183,-2.73864 1.8603,-2.79297 0.0925,-0.0424 1.92523,-0.4513 3.66818,-0.83789 -0.52651,-0.022 -1.04928,-0.0517 -1.59233,-0.0449 z m -47.292067,59.8300804 -0.524299,0.69531 c -0.289103,0.38302 -1.147066,1.63031 -1.906908,2.77149 -1.33946,2.01167 -1.436895,2.1071 -3.174942,3.11523 -0.985951,0.57189 -1.942373,1.03906 -2.124397,1.03906 -0.02495,0 -0.117409,-0.0452 -0.182531,-0.0723 -1.616582,3.66158 -3.197164,7.34796 -4.742032,11.05079 l 0.990355,0.67187 5.582844,1.7168 c 3.070449,0.94385 5.702819,1.79003 5.848892,1.88086 0.146072,0.0909 1.389648,1.76553 2.76326,3.72266 2.443277,3.48121 2.558558,3.61115 5.351775,5.95117 1.570341,1.31555 3.285412,2.73529 3.809929,3.15625 l 0.953449,0.76562 2.188475,-0.35742 2.190417,-0.35938 1.58067,0.83985 c 1.04593,0.55542 1.62308,0.98768 1.70301,1.27734 0.0813,0.29464 -0.61809,2.708353 -2.13604,7.375003 -2.204155,6.77629 -2.293665,7.00283 -3.877895,9.75391 -0.891976,1.54894 -1.621455,2.90591 -1.621455,3.01758 0,0.11164 0.21736,0.81361 0.483526,1.55859 l 0.483525,1.35352 -1.314644,5.05468 c -0.722837,2.77992 -1.313431,5.26068 -1.312695,5.51172 7.65e-4,0.25105 2.182887,5.06177 4.848832,10.69141 l 4.846876,10.23633 4.96145,5.08789 4.9634,5.08593 2.07585,3.38282 c 1.14236,1.85994 2.11939,3.57179 2.171,3.80469 0.11129,0.50238 -0.56496,12.98647 -0.71266,13.15625 -0.33314,0.38291 -13.75784,-3.99481 -19.100139,-6.22852 -1.367726,-0.57186 -2.517257,-0.95254 -2.553547,-0.8457 -0.1482,0.43653 3.980609,5.82639 8.169406,10.66406 1.20497,1.39163 2.31727,2.62753 3.42738,3.82422 17.40639,-0.36917 34.82526,0.0122 52.17973,1.71094 19.15288,-0.81618 29.5307,-4.0737 36.24094,-11.98828 -10.07224,3.36032 -20.45119,5.59786 -30.96685,6.6289 -1.77291,0.17377 -4.34879,0.38051 -5.7246,0.45899 l -2.50112,0.14453 -0.37478,-0.61133 c -0.20564,-0.33617 -0.47981,-0.9538 -0.60974,-1.37305 l -0.2369,-0.76367 1.70688,-2.94141 c 0.93853,-1.6186 1.73539,-2.98049 1.77098,-3.02539 0.0356,-0.0448 1.87116,-0.55084 4.07792,-1.125 2.20675,-0.57415 4.07843,-1.11963 4.15946,-1.21093 0.081,-0.0913 1.09637,-2.67436 2.25644,-5.74024 1.79758,-4.75071 2.10611,-5.73315 2.09915,-6.64844 -2.8e-4,-0.0349 -0.0176,-0.24976 -0.0194,-0.30273 -1.08669,-0.11447 -2.16689,-0.22592 -3.35942,-0.37891 -7.08934,-0.90944 -14.18213,-2.15464 -21.24007,-3.5625 l -6.30522,-58.27344 c -1.1195,-0.32019 -2.03031,-0.60156 -2.12245,-0.68945 -0.13857,-0.13218 -1.18144,-3.117703 -2.31664,-6.634763 -1.13521,-3.51707 -2.13215,-6.47848 -2.21567,-6.58203 -0.0881,-0.10917 -2.43346,0.10153 -5.5809,0.50195 l -5.42944,0.69141 -4.46628,-3.75977 c -2.45662,-2.06799 -4.59848,-3.79953 -4.7595,-3.84766 -0.1827,-0.0546 -2.09275,1.72557 -5.08185,4.73828 -4.26024,4.29387 -4.79489,4.90447 -4.84688,5.52735 -0.0322,0.38515 -0.15847,0.74538 -0.27963,0.79882 -0.34725,0.15317 -5.593382,-1.12038 -7.136331,-1.73242 -0.767061,-0.30427 -1.564942,-0.70951 -1.772926,-0.90039 -0.231676,-0.21263 -0.778742,-1.64509 -1.413669,-3.69726 l -1.036955,-3.34961 -0.002,-3.74219 c -0.002,-2.05882 -0.07914,-3.88012 -0.170889,-4.04687 -0.14485,-0.26284 -0.560966,-0.26273 -3.143873,0.002 -1.637202,0.16769 -3.059263,0.24439 -3.161351,0.17187 -0.120551,-0.0856 0.07785,-2.54554 0.567031,-7.02148 0.414277,-3.79014 0.753439,-7.09079 0.753439,-7.33399 0,-0.41863 -0.09753,-0.4414 -1.823412,-0.4414 z"
     id="path4557-6"
     inkscape:connector-curvature="0"
     sodipodi:nodetypes="sccscccscccccscccsccscscccccccccccccccsccccccccccccccccccccccccccccccccccscccccccccccccccccssc" />
  <path
     id="path20-7"
     d="m 39.962064,166.70372 10.553,-35.529 c 15.702,-5.6533 49.891406,-5.16125 93.982406,5.99075 l 3.89979,33.86845 -108.429996,-4.33 z"
     inkscape:connector-curvature="0"
     style="fill:url(#linearGradient4942);fill-rule:evenodd"
     sodipodi:nodetypes="cccccc" />
  <path
     id="path22-8"
     d="m 108.50206,158.86372 0.32721,-30.747 3.1085,-1.3525 c 10.58,0.18033 19.196,1.8034 25.849,4.8691 l 3.7629,29.575 -3.7629,1.623 -29.285,-3.9674 z m 9.6595,-26.808 1.1322,18.838 13.549,2.0407 -1.0711,-6.1908 -10.971,-5.0484 9.73,-1.9262 -0.86277,-5.816 c -3.8353,-1.7453 -7.6706,-2.0845 -11.506,-1.8971 z"
     inkscape:connector-curvature="0"
     style="fill:#ffcd00;fill-rule:evenodd;stroke:#000000" />
  <path
     id="path24-4"
     d="m 108.85206,128.21372 3.3518,-1.4302 0.64873,30.51 -4.2168,1.6089 0.21624,-30.689 z"
     inkscape:connector-curvature="0"
     style="fill:#bc9500;fill-rule:evenodd;stroke:#000000" />
  <path
     id="path26-5"
     d="m 118.02206,130.29372 0.0498,1.7634 c 3.1896,-0.2648 6.9182,-0.0784 11.628,1.7909 l 0.78942,5.8177 2.7865,-0.69845 -1.2404,-6.2945 c -5.3145,-2.4177 -9.6969,-2.6755 -14.013,-2.3791 z"
     inkscape:connector-curvature="0"
     style="fill:#bc9500;fill-rule:evenodd;stroke:#000000" />
  <path
     id="path28-0"
     d="m 121.27206,141.73372 10.451,4.4457 1.301,6.8993 2.7751,0.53493 -1.8734,-9.5091 -12.654,-2.3709 z"
     inkscape:connector-curvature="0"
     style="fill:#bc9500;fill-rule:evenodd;stroke:#000000" />
  <path
     id="path30-3"
     d="m 39.942064,178.54372 c 31.031,3.1428 68.809996,-1.8989 117.899996,1.3706 13.508,0.89959 30.69,1.0336 44.025,-9.1392 2.3789,-1.8148 6.2853,-7.0366 -4.0513,-8.6788 -2.8783,-1.0439 -2.8671,5.2806 -29.224,1.9189 -34.215,-4.3639 -68.591996,-16.234 -98.085996,-18.64 -29.494,-2.4058 -54.353,-2.5505 -66.1740001,10.965 -10.526,12.035 4.5751,19.061 35.6060001,22.204 z"
     inkscape:connector-curvature="0"
     style="fill:#377cff;fill-rule:evenodd;stroke:#000000;stroke-width:2" />
  <path
     id="path32-6"
     d="m 38.442064,150.55372 c -9.6729,0.33939 -19.659,0.63011 -28.7650001,4.7748 -3.3075,1.4045 -5.8341,4.4757 -7.1644,8.281 -1.99580004,4.3135 -1.60770004,10.122 1.552,13.552 5.5201,6.2795 13.3020001,8.484 20.5210001,10.602 23.705,6.3221 48.228,4.4128 72.343,3.72 21.033996,-0.78613 42.111996,-0.6328 63.093996,1.4092 26.258,-1.1125 36.127,-6.7479 42.592,-22.553 -17.112,6.209 -19.272,10.507 -50.754,4.3441 -25.623,-6.4505 -50.306,-17.844 -76.365996,-21.801 -12.279,-1.5518 -24.681,-2.4999 -37.052,-2.3298 z"
     inkscape:connector-curvature="0"
     style="fill:url(#linearGradient4944);fill-rule:evenodd;stroke:#000000;stroke-width:2" />
  <path
     id="path34-1"
     d="m 133.12206,29.713717 c -1.2363,-3.4249 -2.6964,-6.8947 -1.3525,-8.7503 1.752,-2.419 5.9665,-3.4056 4.0406,2.9734"
     inkscape:connector-curvature="0"
     style="fill:none;stroke:#000000;stroke-width:2" />
</svg>
