<?xml version="1.0" ?><svg enable-background="new 0 0 128 129.396" height="48" id="svg2" overflow="visible" version="1.0" width="48" xml:space="preserve" xmlns="http://www.w3.org/2000/svg" xmlns:cc="http://creativecommons.org/ns#" xmlns:dc="http://purl.org/dc/elements/1.1/" xmlns:inkscape="http://www.inkscape.org/namespaces/inkscape" xmlns:rdf="http://www.w3.org/1999/02/22-rdf-syntax-ns#" xmlns:sodipodi="http://sodipodi.sourceforge.net/DTD/sodipodi-0.dtd" xmlns:svg="http://www.w3.org/2000/svg" xmlns:xlink="http://www.w3.org/1999/xlink"><defs id="defs365"><radialGradient cx="605.71429" cy="486.64789" fx="605.71429" fy="486.64789" gradientTransform="matrix(-2.774389,0,0,1.969706,112.7623,-872.8854)" gradientUnits="userSpaceOnUse" id="radialGradient5031" r="117.14286" xlink:href="#linearGradient5060"/><linearGradient id="linearGradient5060"><stop id="stop5062" offset="0" style="stop-color:black;stop-opacity:1;"/><stop id="stop5064" offset="1" style="stop-color:black;stop-opacity:0;"/></linearGradient><radialGradient cx="605.71429" cy="486.64789" fx="605.71429" fy="486.64789" gradientTransform="matrix(2.774389,0,0,1.969706,-1891.633,-872.8854)" gradientUnits="userSpaceOnUse" id="radialGradient5029" r="117.14286" xlink:href="#linearGradient5060"/><linearGradient id="linearGradient5048"><stop id="stop5050" offset="0" style="stop-color:black;stop-opacity:0;"/><stop id="stop5056" offset="0.5" style="stop-color:black;stop-opacity:1;"/><stop id="stop5052" offset="1" style="stop-color:black;stop-opacity:0;"/></linearGradient><linearGradient gradientTransform="matrix(2.774389,0,0,1.969706,-1892.179,-872.8854)" gradientUnits="userSpaceOnUse" id="linearGradient5027" x1="302.85715" x2="302.85715" xlink:href="#linearGradient5048" y1="366.64789" y2="609.50507"/><linearGradient id="linearGradient2406"><stop id="stop2408" offset="0" style="stop-color:#7c7e79;stop-opacity:1;"/><stop id="stop2414" offset="0.1724138" style="stop-color:#848681;stop-opacity:1;"/><stop id="stop2410" offset="1" style="stop-color:#898c86;stop-opacity:1;"/></linearGradient><linearGradient id="linearGradient2390"><stop id="stop2392" offset="0" style="stop-color:#919191;stop-opacity:1;"/><stop id="stop2394" offset="1" style="stop-color:#919191;stop-opacity:0;"/></linearGradient><linearGradient id="linearGradient2378"><stop id="stop2380" offset="0" style="stop-color:#575757;stop-opacity:1;"/><stop id="stop2382" offset="1" style="stop-color:#575757;stop-opacity:0;"/></linearGradient><linearGradient id="linearGradient2368"><stop id="stop2370" offset="0" style="stop-color:#ffffff;stop-opacity:1;"/><stop id="stop2372" offset="1" style="stop-color:#ffffff;stop-opacity:0;"/></linearGradient><linearGradient id="linearGradient2349"><stop id="stop2351" offset="0" style="stop-color:#000000;stop-opacity:1;"/><stop id="stop2353" offset="1" style="stop-color:#000000;stop-opacity:0;"/></linearGradient><linearGradient id="linearGradient2341"><stop id="stop2343" offset="0" style="stop-color:#000000;stop-opacity:1;"/><stop id="stop2345" offset="1" style="stop-color:#000000;stop-opacity:0;"/></linearGradient><linearGradient id="linearGradient2329"><stop id="stop2331" offset="0" style="stop-color:#000000;stop-opacity:0.18556701;"/><stop id="stop2333" offset="1" style="stop-color:#ffffff;stop-opacity:1;"/></linearGradient><linearGradient id="linearGradient2319"><stop id="stop2321" offset="0" style="stop-color:#000000;stop-opacity:1;"/><stop id="stop2323" offset="1" style="stop-color:#000000;stop-opacity:0;"/></linearGradient><linearGradient id="linearGradient2307"><stop id="stop2309" offset="0" style="stop-color:#edd400;stop-opacity:1;"/><stop id="stop2311" offset="1" style="stop-color:#998800;stop-opacity:1;"/></linearGradient><linearGradient id="linearGradient2299"><stop id="stop2301" offset="0" style="stop-color:#ffffff;stop-opacity:1;"/><stop id="stop2303" offset="1" style="stop-color:#ffffff;stop-opacity:0;"/></linearGradient><linearGradient gradientTransform="matrix(0.314683,0.000000,0.000000,0.314683,4.128264,3.742874)" gradientUnits="userSpaceOnUse" id="XMLID_2_" x1="80.223602" x2="48.046001" y1="117.5205" y2="59.7995"><stop id="stop17" offset="0" style="stop-color:#CCCCCC"/><stop id="stop19" offset="0.9831" style="stop-color:#FFFFFF"/></linearGradient><linearGradient gradientTransform="matrix(0.336922,0.000000,0.000000,0.166888,17.98288,15.46151)" gradientUnits="userSpaceOnUse" id="linearGradient1514" x1="52.006104" x2="14.049017" xlink:href="#XMLID_2_" y1="166.1331" y2="-42.218513"/><linearGradient gradientTransform="matrix(0.354101,0.000000,0.000000,0.354101,1.638679,-8.364921e-2)" gradientUnits="userSpaceOnUse" id="XMLID_39_" x1="64.387703" x2="64.387703" y1="65.124001" y2="35.569"><stop id="stop336" offset="0" style="stop-color:#FFFFFF"/><stop id="stop338" offset="0.8539" style="stop-color:#FF6200"/><stop id="stop340" offset="1" style="stop-color:#F25D00"/></linearGradient><radialGradient cx="7.5326638" cy="24.202574" fx="7.5326638" fy="24.202574" gradientTransform="matrix(4.100086,-1.627292e-17,2.125447e-14,4.201322,-25.41506,-78.53967)" gradientUnits="userSpaceOnUse" id="radialGradient2305" r="8.2452128" xlink:href="#linearGradient2299"/><radialGradient cx="19.985598" cy="36.77816" fx="19.985598" fy="36.77816" gradientTransform="matrix(1.125263,0.000000,0.000000,0.982744,-3.428678,0.565787)" gradientUnits="userSpaceOnUse" id="radialGradient2313" r="1.0821035" xlink:href="#linearGradient2307"/><radialGradient cx="20.443665" cy="37.425829" fx="20.443665" fy="37.425829" gradientTransform="matrix(1.125263,0.000000,0.000000,0.982744,-3.428678,0.731106)" gradientUnits="userSpaceOnUse" id="radialGradient2325" r="1.0821035" xlink:href="#linearGradient2319"/><linearGradient gradientTransform="matrix(0.898789,0,0,1.071914,0.478025,-2.080838)" gradientUnits="userSpaceOnUse" id="linearGradient2335" x1="17.602522" x2="17.682528" xlink:href="#linearGradient2329" y1="26.057423" y2="32.654099"/><radialGradient cx="11.68129" cy="19.554111" fx="11.68129" fy="19.554111" gradientTransform="matrix(4.100086,1.627292e-17,2.125447e-14,-4.201322,-5.198109,105.3535)" gradientUnits="userSpaceOnUse" id="radialGradient2339" r="8.2452126" xlink:href="#linearGradient2341"/><radialGradient cx="24.023088" cy="40.56913" fx="24.023088" fy="40.56913" gradientTransform="matrix(1.000000,0.000000,0.000000,0.431250,1.157278e-15,23.07369)" gradientUnits="userSpaceOnUse" id="radialGradient2355" r="16.28684" xlink:href="#linearGradient2349"/><radialGradient cx="29.913452" cy="30.442923" fx="29.913452" fy="30.442923" gradientTransform="matrix(3.751495,-2.191984e-22,1.723265e-22,3.147818,-82.00907,-65.70704)" gradientUnits="userSpaceOnUse" id="radialGradient2374" r="4.0018832" xlink:href="#linearGradient2368"/><radialGradient cx="24.195112" cy="10.577631" fx="24.195112" fy="10.577631" gradientTransform="matrix(1.125263,-3.585417e-8,4.269819e-8,1.340059,-3.006704,1.355395)" gradientUnits="userSpaceOnUse" id="radialGradient2384" r="15.242914" xlink:href="#linearGradient2378"/><linearGradient gradientTransform="matrix(1.263867,0,0,0.859794,-6.499556,8.390924)" gradientUnits="userSpaceOnUse" id="linearGradient2396" x1="30.603519" x2="30.603519" xlink:href="#linearGradient2390" y1="37.337803" y2="36.112415"/><linearGradient gradientTransform="matrix(0.888785,0,0,1.08932,2.41099,-1.524336)" gradientUnits="userSpaceOnUse" id="linearGradient2412" x1="17.850183" x2="19.040216" xlink:href="#linearGradient2406" y1="28.939463" y2="41.03223"/></defs><g id="g5022" style="display:inline" transform="matrix(2.158196e-2,0,0,1.859457e-2,43.12251,41.63767)"><rect height="478.35718" id="rect4173" style="opacity:0.40206185;color:black;fill:url(#linearGradient5027);fill-opacity:1;fill-rule:nonzero;stroke:none;stroke-width:1;stroke-linecap:round;stroke-linejoin:miter;marker:none;marker-start:none;marker-mid:none;marker-end:none;stroke-miterlimit:4;stroke-dasharray:none;stroke-dashoffset:0;stroke-opacity:1;visibility:visible;display:inline;overflow:visible" width="1339.6335" x="-1559.2523" y="-150.69685"/><path d="M -219.61876,-150.68038 C -219.61876,-150.68038 -219.61876,327.65041 -219.61876,327.65041 C -76.744594,328.55086 125.78146,220.48075 125.78138,88.454235 C 125.78138,-43.572302 -33.655436,-150.68036 -219.61876,-150.68038 z " id="path5058" style="opacity:0.40206185;color:black;fill:url(#radialGradient5029);fill-opacity:1;fill-rule:nonzero;stroke:none;stroke-width:1;stroke-linecap:round;stroke-linejoin:miter;marker:none;marker-start:none;marker-mid:none;marker-end:none;stroke-miterlimit:4;stroke-dasharray:none;stroke-dashoffset:0;stroke-opacity:1;visibility:visible;display:inline;overflow:visible"/><path d="M -1559.2523,-150.68038 C -1559.2523,-150.68038 -1559.2523,327.65041 -1559.2523,327.65041 C -1702.1265,328.55086 -1904.6525,220.48075 -1904.6525,88.454235 C -1904.6525,-43.572302 -1745.2157,-150.68036 -1559.2523,-150.68038 z " id="path5018" style="opacity:0.40206185;color:black;fill:url(#radialGradient5031);fill-opacity:1;fill-rule:nonzero;stroke:none;stroke-width:1;stroke-linecap:round;stroke-linejoin:miter;marker:none;marker-start:none;marker-mid:none;marker-end:none;stroke-miterlimit:4;stroke-dasharray:none;stroke-dashoffset:0;stroke-opacity:1;visibility:visible;display:inline;overflow:visible"/></g><path d="M 21.619576,8.1833733 L 27.577035,8.1833733 C 28.416767,8.1833733 41.46351,23.618701 41.46351,24.524032 L 41.019989,43.020777 C 41.019989,43.92611 40.343959,44.654954 39.504227,44.654954 L 8.0469496,44.654954 C 7.2072167,44.654954 6.5311871,43.92611 6.5311871,43.020777 L 6.5876651,24.524032 C 6.5876651,23.618701 20.779844,8.1833733 21.619576,8.1833733 z " id="rect1512" style="color:#000000;fill:url(#linearGradient1514);fill-opacity:1;fill-rule:nonzero;stroke:#757575;stroke-width:1.0000006;stroke-linecap:butt;stroke-linejoin:miter;marker:none;marker-start:none;marker-mid:none;marker-end:none;stroke-miterlimit:4;stroke-dashoffset:0;stroke-opacity:1;visibility:visible;display:inline;overflow:visible"/><path d="M 46.963575,45.735573 L 1.6386762,45.735573 L 1.6386762,0.41067554 L 46.963575,0.41067554 L 46.963575,45.735573 z " id="path5" style="fill:none"/><path clip-rule="evenodd" d="M 23,29 L 22.954256,44.090942 L 11.111465,44.090942 L 11,29 L 23,29 z " id="path2327" style="fill:url(#linearGradient2335);fill-opacity:1;fill-rule:evenodd"/><path d="M 21.780459,9.405584 L 27.339556,9.405584 C 28.123138,9.405584 40.340425,23.805172 40.340425,24.649756 L 39.993267,42.862067 C 39.993267,43.321326 39.84953,43.515532 39.480892,43.515532 L 8.0936894,43.529812 C 7.7250517,43.529812 7.5097258,43.449894 7.5097258,43.076262 L 7.7250676,24.649756 C 7.7250676,23.805172 20.99688,9.405584 21.780459,9.405584 z " id="path2357" style="opacity:0.3125;color:#000000;fill:none;fill-opacity:1;fill-rule:nonzero;stroke:#ffffff;stroke-width:1.00000012;stroke-linecap:butt;stroke-linejoin:miter;marker:none;marker-start:none;marker-mid:none;marker-end:none;stroke-miterlimit:4;stroke-dashoffset:0;stroke-opacity:1;visibility:visible;display:inline;overflow:visible"/><path clip-rule="evenodd" d="M 7.2075295,27.943053 L 7.1532728,30.538247 L 25.521437,17.358993 L 40.807832,28.513421 L 40.879142,28.201707 L 24.508686,12.297576 L 7.2075295,27.943053 z " id="path23" style="opacity:0.2;fill:url(#radialGradient2384);fill-opacity:1;fill-rule:evenodd"/><path clip-rule="evenodd" d="M 22,30 L 22,44.090942 L 12.188971,44.090942 L 12,30 L 22,30 z " id="path188" style="fill:url(#linearGradient2412);fill-opacity:1;fill-rule:evenodd"/><path clip-rule="evenodd" d="M 19.576856,36.44767 C 20.249646,36.44767 20.793472,36.922275 20.793472,37.506177 C 20.793472,38.095988 20.249646,38.574532 19.576856,38.574532 C 18.904584,38.574532 18.35817,38.095988 18.35817,37.506177 C 18.358685,36.922275 18.904584,36.44767 19.576856,36.44767 z " id="path2315" style="opacity:0.40909089;fill:url(#radialGradient2325);fill-opacity:1;fill-rule:evenodd"/><path clip-rule="evenodd" d="M 19.462314,35.932229 C 20.135103,35.932229 20.678929,36.406834 20.678929,36.990736 C 20.678929,37.580545 20.135103,38.059089 19.462314,38.059089 C 18.790041,38.059089 18.243627,37.580545 18.243627,36.990736 C 18.244142,36.406834 18.790041,35.932229 19.462314,35.932229 z " id="path217" style="fill:url(#radialGradient2313);fill-opacity:1;fill-rule:evenodd"/><path d="M 24.447748,11.559337 L 43.374808,28.729205 L 43.869487,29.121196 L 44.273163,28.949811 L 43.900293,28.188138 L 43.622679,27.964702 L 24.447748,12.392396 L 5.0582327,28.135731 L 4.8206309,28.279851 L 4.603921,28.986637 L 5.0373408,29.115885 L 5.4218948,28.807462 L 24.447748,11.559337 z " id="path342" style="fill:url(#XMLID_39_)"/><path d="M 24.330168,2.2713382 L 2.4484294,20.372675 L 1.8237005,27.538603 L 3.8236367,29.602926 C 3.8236367,29.602926 24.231018,12.445641 24.44773,12.274963 L 44.08027,29.818223 L 45.978694,27.494226 L 44.362903,20.382852 L 24.44773,2.1668788 L 24.330168,2.2713382 z " id="path362" style="fill:#ef2929;stroke:#a40000"/><path d="M 2.8413446,20.613129 L 2.5497894,27.236494 L 24.369219,8.980075 L 24.298891,3.0867443 L 2.8413446,20.613129 z " id="path1536" style="opacity:0.40909089;color:#000000;fill:url(#radialGradient2305);fill-opacity:1;fill-rule:nonzero;stroke:none;stroke-width:1;stroke-linecap:butt;stroke-linejoin:miter;marker:none;marker-start:none;marker-mid:none;marker-end:none;stroke-miterlimit:4;stroke-dasharray:none;stroke-dashoffset:0;stroke-opacity:1;visibility:visible;display:inline;overflow:visible"/><path d="M 24.483763,8.7509884 L 24.583223,2.9098867 L 43.912186,20.56184 L 45.403998,27.062652 L 24.483763,8.7509884 z " id="path2337" style="opacity:0.13636367;color:#000000;fill:url(#radialGradient2339);fill-opacity:1;fill-rule:nonzero;stroke:none;stroke-width:1;stroke-linecap:butt;stroke-linejoin:miter;marker:none;marker-start:none;marker-mid:none;marker-end:none;stroke-miterlimit:4;stroke-dasharray:none;stroke-dashoffset:0;stroke-opacity:1;visibility:visible;display:inline;overflow:visible"/><path d="M 27.102228,27.719824 L 36.142223,27.719824 C 36.912818,27.719824 37.53319,28.340194 37.53319,29.110791 L 37.525229,38.190012 C 37.525229,38.960608 36.928907,39.455981 36.158311,39.455981 L 27.102228,39.455981 C 26.331631,39.455981 25.711261,38.835608 25.711261,38.065012 L 25.711261,29.110791 C 25.711261,28.340194 26.331631,27.719824 27.102228,27.719824 z " id="rect2361" style="opacity:0.31818183;color:#000000;fill:none;fill-opacity:1;fill-rule:nonzero;stroke:#ffffff;stroke-width:0.99999934;stroke-linecap:butt;stroke-linejoin:miter;marker:none;marker-start:none;marker-mid:none;marker-end:none;stroke-miterlimit:4;stroke-dashoffset:0;stroke-opacity:1;visibility:visible;display:inline;overflow:visible"/><rect height="9.9624557" id="rect3263" rx="0.38128215" ry="0.38128215" style="opacity:1;color:#000000;fill:#3465a4;fill-opacity:1;fill-rule:nonzero;stroke:#757575;stroke-width:0.9999994;stroke-linecap:butt;stroke-linejoin:miter;marker:none;marker-start:none;marker-mid:none;marker-end:none;stroke-miterlimit:4;stroke-dasharray:none;stroke-dashoffset:0;stroke-opacity:1;visibility:visible;display:inline;overflow:visible" width="10.001333" x="26.507767" y="28.514256"/><path d="M 27.107118,34.408261 C 30.725101,34.739438 32.634842,32.962557 35.97527,32.855521 L 36,29.00603 L 27.088388,29 L 27.107118,34.408261 z " id="rect2363" style="opacity:0.39772728;color:#000000;fill:url(#radialGradient2374);fill-opacity:1;fill-rule:nonzero;stroke:none;stroke-width:0.99999958;stroke-linecap:butt;stroke-linejoin:miter;marker:none;marker-start:none;marker-mid:none;marker-end:none;stroke-miterlimit:4;stroke-dasharray:none;stroke-dashoffset:0;stroke-opacity:1;visibility:visible;display:inline;overflow:visible"/></svg>