<?xml version="1.0" ?><svg height="32px" version="1.1" viewBox="0 0 32 32" width="32px" xmlns="http://www.w3.org/2000/svg" xmlns:sketch="http://www.bohemiancoding.com/sketch/ns" xmlns:xlink="http://www.w3.org/1999/xlink"><title/><desc/><defs/><g fill="none" fill-rule="evenodd" id="Page-1" stroke="none" stroke-width="1"><g fill="#157EFB" id="icon-24-key"><path d="M18.5324038,19.4675962 L14,24 L11,24 L11,27 L8,27 L8,30 L3,30 L3,25 L13.5324038,14.4675962 C13.1881566,13.5437212 13,12.5438338 13,11.5 C13,6.80557939 16.8055794,3 21.5,3 C26.1944206,3 30,6.80557939 30,11.5 C30,16.1944206 26.1944206,20 21.5,20 C20.4561662,20 19.4562788,19.8118434 18.5324038,19.4675962 L18.5324038,19.4675962 L18.5324038,19.4675962 Z M27,9 C27,7.34314567 25.6568543,6 24,6 C22.3431457,6 21,7.34314567 21,9 C21,10.6568543 22.3431457,12 24,12 C25.6568543,12 27,10.6568543 27,9 L27,9 Z" id="key"/></g></g></svg>