<?xml version="1.0" ?><svg id="Layer_1" style="enable-background:new 0 0 96 96;" version="1.1" viewBox="0 0 96 96" xml:space="preserve" xmlns="http://www.w3.org/2000/svg" xmlns:xlink="http://www.w3.org/1999/xlink"><style type="text/css">
	.st0{fill-rule:evenodd;clip-rule:evenodd;fill:#5C6061;}
	.st1{fill-rule:evenodd;clip-rule:evenodd;fill:#00A651;}
	.st2{fill-rule:evenodd;clip-rule:evenodd;fill:#2B2D2D;}
	.st3{fill-rule:evenodd;clip-rule:evenodd;fill:#56ADD9;}
	.st4{fill-rule:evenodd;clip-rule:evenodd;fill:#ED1651;}
	.st5{fill-rule:evenodd;clip-rule:evenodd;fill:#BCBEC0;}
</style><g id="XMLID_2_"><g id="XMLID_10_"><path class="st0" d="M24,0h48c2.2,0,4,1.8,4,4v88c0,2.2-1.8,4-4,4H24c-2.2,0-4-1.8-4-4V4C20,1.8,21.8,0,24,0L24,0z     M24,12v72h48V12H24z" id="XMLID_15_"/><rect class="st1" height="72" id="XMLID_14_" width="48" x="24" y="12"/><path class="st2" d="M42,4h12c1.1,0,2,0.9,2,2v0c0,1.1-0.9,2-2,2H42c-1.1,0-2-0.9-2-2v0C40,4.9,40.9,4,42,4z" id="XMLID_13_"/><path class="st2" d="M32,8c1.1,0,2-0.9,2-2c0-1.1-0.9-2-2-2c-1.1,0-2,0.9-2,2C30,7.1,30.9,8,32,8z" id="XMLID_12_"/><path class="st2" d="M44,88h8c1.1,0,2,0.9,2,2v0c0,1.1-0.9,2-2,2h-8c-1.1,0-2-0.9-2-2v0C42,88.9,42.9,88,44,88z" id="XMLID_11_"/></g><g id="XMLID_5_"><path class="st3" d="M46.5,12h13.9l-5.9,3.4l0,0l0,0L50,18l-9,5.2l7.8,13.6L62.4,29l4.5-2.6l5.1-3v6l-2.5,1.5    l2.5,4.4v10.4l-7-12.2l-13.6,7.8l5.2,9l2.6,4.5l7.8,13.6l4.9-2.9v6L69.7,73l2.3,4v7h-2l-4.9-8.4h0l-1-1.8l-4.2-7.2l-5.2-9v0    l-13.6,7.8h0l0,0L51.9,84h-6l-9.3-16.1l0,0L34,63.4L24,46.1V35.6l14.5,25.2L52.1,53l-5.2-9l-2.6-4.5l-7.8-13.6L24,33v-6l9.8-5.7    l13.6-7.8L46.5,12L46.5,12z M70.7,12l1.3,2.3V12H70.7L70.7,12z M41.1,65.3L41.1,65.3L41.1,65.3z" id="XMLID_6_"/></g><path class="st4" d="M34,58c3.7,0,6.7,3,6.7,6.7c0,2.2-1,4.1-2.7,5.3l-4,8l-4-8c-1.6-1.2-2.7-3.2-2.7-5.3   C27.3,61,30.3,58,34,58z" id="XMLID_4_"/><path class="st5" d="M34,67.3c1.5,0,2.7-1.2,2.7-2.7c0-1.5-1.2-2.7-2.7-2.7c-1.5,0-2.7,1.2-2.7,2.7   C31.3,66.1,32.5,67.3,34,67.3z" id="XMLID_3_"/></g></svg>