<?xml version="1.0" encoding="UTF-8" standalone="no"?>
<!-- Generator: Adobe Illustrator 19.0.0, SVG Export Plug-In . SVG Version: 6.00 Build 0)  -->

<svg
   xmlns:dc="http://purl.org/dc/elements/1.1/"
   xmlns:cc="http://creativecommons.org/ns#"
   xmlns:rdf="http://www.w3.org/1999/02/22-rdf-syntax-ns#"
   xmlns:svg="http://www.w3.org/2000/svg"
   xmlns="http://www.w3.org/2000/svg"
   xmlns:sodipodi="http://sodipodi.sourceforge.net/DTD/sodipodi-0.dtd"
   xmlns:inkscape="http://www.inkscape.org/namespaces/inkscape"
   version="1.1"
   id="Layer_1"
   x="0px"
   y="0px"
   viewBox="0 0 491.52 491.52"
   style="enable-background:new 0 0 491.52 491.52;"
   xml:space="preserve"
   sodipodi:docname="test.svg"
   inkscape:version="0.92.4 (f8dce91, 2019-08-02)"
   inkscape:export-filename="/home/ai/Desktop/test.svg.png"
   inkscape:export-xdpi="96"
   inkscape:export-ydpi="96"><metadata
   id="metadata101"><rdf:RDF><cc:Work
       rdf:about=""><dc:format>image/svg+xml</dc:format><dc:type
         rdf:resource="http://purl.org/dc/dcmitype/StillImage" /><dc:title /></cc:Work></rdf:RDF></metadata><defs
   id="defs99" /><sodipodi:namedview
   pagecolor="#ffffff"
   bordercolor="#666666"
   borderopacity="1"
   objecttolerance="10"
   gridtolerance="10"
   guidetolerance="10"
   inkscape:pageopacity="0"
   inkscape:pageshadow="2"
   inkscape:window-width="1920"
   inkscape:window-height="1012"
   id="namedview97"
   showgrid="false"
   inkscape:zoom="0.96028648"
   inkscape:cx="-209.32959"
   inkscape:cy="357.53099"
   inkscape:window-x="0"
   inkscape:window-y="0"
   inkscape:window-maximized="1"
   inkscape:current-layer="Layer_1" />
<rect
   style="fill:#ebf0f3;stroke-width:1.00633574"
   width="497.76813"
   height="491.52002"
   id="rect2"
   x="-6.2481356"
   y="-2.3276118e-06" />
<g
   id="g22"
   transform="matrix(1.0127119,0,0,0.8939394,-6.2481355,52.130908)">
	<polygon
   style="fill:#d5d6db"
   points="64.951,455.082 64.951,46.157 73.888,46.157 73.888,446.145 465.917,446.145 465.917,455.082 "
   id="polygon4" />
	<rect
   x="69.421997"
   y="397.466"
   style="fill:#d5d6db"
   width="396.49301"
   height="8.934"
   id="rect6" />
	<rect
   x="69.421997"
   y="349.74701"
   style="fill:#d5d6db"
   width="396.49301"
   height="8.934"
   id="rect8" />
	<rect
   x="69.421997"
   y="302.013"
   style="fill:#d5d6db"
   width="396.49301"
   height="8.934"
   id="rect10" />
	<rect
   x="69.421997"
   y="254.295"
   style="fill:#d5d6db"
   width="396.49301"
   height="8.934"
   id="rect12" />
	<rect
   x="69.421997"
   y="206.592"
   style="fill:#d5d6db"
   width="396.49301"
   height="8.934"
   id="rect14" />
	<rect
   x="69.421997"
   y="158.87399"
   style="fill:#d5d6db"
   width="396.49301"
   height="8.934"
   id="rect16" />
	<rect
   x="69.421997"
   y="111.15"
   style="fill:#d5d6db"
   width="396.49301"
   height="8.934"
   id="rect18" />
	<rect
   x="69.421997"
   y="63.426998"
   style="fill:#d5d6db"
   width="396.49301"
   height="8.934"
   id="rect20" />
</g>
<g
   id="g56"
   transform="matrix(1.0127119,0,0,0.8939394,-6.2481355,52.130908)">
	<path
   style="fill:#64798a"
   d="m 30.435,458.407 c -1.27,-1.763 -1.907,-4.119 -1.907,-7.06 0,-2.95 0.637,-5.307 1.907,-7.069 1.27,-1.763 3.181,-2.644 5.738,-2.644 2.552,0 4.464,0.881 5.734,2.644 1.27,1.762 1.907,4.119 1.907,7.069 0,2.941 -0.637,5.297 -1.907,7.06 -1.27,1.763 -3.181,2.644 -5.734,2.644 -2.557,0.001 -4.468,-0.88 -5.738,-2.644 z m 2.265,-12.13 c -0.742,1.282 -1.113,2.976 -1.113,5.071 0,2.086 0.371,3.778 1.113,5.062 0.742,1.291 1.898,1.929 3.474,1.929 1.571,0 2.719,-0.637 3.443,-1.912 0.724,-1.282 1.086,-2.976 1.086,-5.079 0,-2.113 -0.362,-3.805 -1.086,-5.089 -0.725,-1.273 -1.872,-1.911 -3.443,-1.911 -1.576,0 -2.733,0.637 -3.474,1.929 z"
   id="path24"
   inkscape:connector-curvature="0" />
	<path
   style="fill:#64798a"
   d="m 41.441,393.858 v 2.862 h -7.907 v 4.617 c 0.786,-0.428 1.676,-0.646 2.679,-0.646 1.75,0 3.259,0.524 4.529,1.58 1.27,1.056 1.903,2.487 1.903,4.294 0,1.806 -0.659,3.299 -1.981,4.485 -1.322,1.196 -2.949,1.789 -4.879,1.789 -2.522,0 -4.534,-0.846 -6.035,-2.522 l 1.689,-2.304 c 0.144,0.139 0.336,0.305 0.576,0.506 0.244,0.201 0.737,0.463 1.488,0.794 0.751,0.332 1.575,0.489 2.469,0.489 0.89,0 1.707,-0.262 2.44,-0.803 0.733,-0.533 1.099,-1.317 1.099,-2.348 0,-1.021 -0.388,-1.815 -1.169,-2.383 -0.777,-0.559 -1.759,-0.846 -2.946,-0.846 -1.191,0 -2.322,0.297 -3.395,0.89 l -1.34,-1.449 v -9.006 h 10.78 z"
   id="path26"
   inkscape:connector-curvature="0" />
	<path
   style="fill:#64798a"
   d="m 22.62,346.107 h 6.812 v 18.738 H 26.43 v -15.927 h -3.81 z"
   id="path28"
   inkscape:connector-curvature="0" />
	<path
   style="fill:#64798a"
   d="m 35.545,362.418 c -1.27,-1.762 -1.907,-4.119 -1.907,-7.06 0,-2.95 0.637,-5.307 1.907,-7.069 1.27,-1.763 3.181,-2.644 5.738,-2.644 2.552,0 4.464,0.881 5.734,2.644 1.27,1.762 1.907,4.119 1.907,7.069 0,2.941 -0.637,5.298 -1.907,7.06 -1.27,1.763 -3.181,2.644 -5.734,2.644 -2.557,10e-4 -4.468,-0.881 -5.738,-2.644 z m 2.265,-12.131 c -0.742,1.283 -1.113,2.976 -1.113,5.071 0,2.086 0.371,3.779 1.113,5.062 0.742,1.291 1.898,1.929 3.474,1.929 1.571,0 2.719,-0.637 3.442,-1.911 0.725,-1.283 1.087,-2.976 1.087,-5.08 0,-2.112 -0.362,-3.805 -1.087,-5.088 -0.724,-1.274 -1.871,-1.912 -3.442,-1.912 -1.576,10e-4 -2.733,0.638 -3.474,1.929 z"
   id="path30"
   inkscape:connector-curvature="0" />
	<path
   style="fill:#64798a"
   d="m 24.082,297.894 h 6.812 v 18.738 h -3.003 v -15.927 h -3.809 z"
   id="path32"
   inkscape:connector-curvature="0" />
	<path
   style="fill:#64798a"
   d="m 46.55,297.868 v 2.862 h -7.906 v 4.617 c 0.786,-0.427 1.676,-0.645 2.679,-0.645 1.75,0 3.259,0.524 4.529,1.579 1.27,1.056 1.903,2.487 1.903,4.294 0,1.806 -0.659,3.299 -1.981,4.485 -1.322,1.196 -2.95,1.789 -4.878,1.789 -2.522,0 -4.534,-0.846 -6.035,-2.522 l 1.689,-2.304 c 0.144,0.139 0.336,0.306 0.576,0.506 0.245,0.201 0.738,0.463 1.488,0.794 0.751,0.332 1.576,0.489 2.47,0.489 0.89,0 1.706,-0.262 2.44,-0.803 0.733,-0.533 1.099,-1.318 1.099,-2.348 0,-1.021 -0.388,-1.816 -1.169,-2.383 -0.777,-0.559 -1.759,-0.847 -2.946,-0.847 -1.191,0 -2.322,0.297 -3.395,0.89 l -1.34,-1.449 v -9.006 H 46.55 Z"
   id="path34"
   inkscape:connector-curvature="0" />
	<path
   style="fill:#64798a"
   d="m 29,257.431 c 0.536,-0.733 0.807,-1.475 0.807,-2.225 0,-0.751 -0.288,-1.388 -0.86,-1.912 -0.572,-0.532 -1.296,-0.794 -2.173,-0.794 -1.535,0 -2.814,0.786 -3.831,2.356 l -2.548,-1.475 c 0.825,-1.231 1.727,-2.156 2.723,-2.784 0.99,-0.628 2.269,-0.943 3.831,-0.943 1.567,0 2.937,0.498 4.119,1.492 1.178,0.995 1.768,2.348 1.768,4.058 0,0.969 -0.249,1.885 -0.751,2.767 -0.502,0.872 -1.423,1.998 -2.762,3.377 l -4.394,4.477 h 8.496 v 3.029 H 20.608 v -2.679 l 5.685,-5.717 c 1.271,-1.281 2.174,-2.293 2.707,-3.027 z"
   id="path36"
   inkscape:connector-curvature="0" />
	<path
   style="fill:#64798a"
   d="m 38.333,266.43 c -1.27,-1.763 -1.907,-4.12 -1.907,-7.061 0,-2.949 0.637,-5.306 1.907,-7.069 1.27,-1.762 3.181,-2.644 5.738,-2.644 2.552,0 4.464,0.882 5.734,2.644 1.27,1.763 1.907,4.12 1.907,7.069 0,2.941 -0.637,5.298 -1.907,7.061 -1.27,1.762 -3.181,2.644 -5.734,2.644 -2.556,0 -4.468,-0.882 -5.738,-2.644 z m 2.265,-12.132 c -0.742,1.283 -1.113,2.977 -1.113,5.071 0,2.086 0.371,3.779 1.113,5.062 0.742,1.292 1.898,1.929 3.474,1.929 1.571,0 2.719,-0.637 3.442,-1.912 0.725,-1.283 1.087,-2.976 1.087,-5.08 0,-2.112 -0.362,-3.804 -1.087,-5.088 -0.724,-1.274 -1.871,-1.912 -3.442,-1.912 -1.576,0.002 -2.732,0.639 -3.474,1.93 z"
   id="path38"
   inkscape:connector-curvature="0" />
	<path
   style="fill:#64798a"
   d="m 30.461,209.438 c 0.537,-0.734 0.808,-1.475 0.808,-2.226 0,-0.751 -0.289,-1.387 -0.86,-1.911 -0.572,-0.533 -1.296,-0.794 -2.173,-0.794 -1.536,0 -2.814,0.786 -3.831,2.357 l -2.549,-1.475 c 0.825,-1.231 1.728,-2.156 2.723,-2.784 0.991,-0.628 2.269,-0.943 3.831,-0.943 1.567,0 2.937,0.498 4.12,1.492 1.178,0.996 1.767,2.348 1.767,4.058 0,0.969 -0.248,1.886 -0.75,2.767 -0.502,0.873 -1.423,1.998 -2.762,3.377 l -4.394,4.477 h 8.496 v 3.029 H 22.07 v -2.679 l 5.686,-5.717 c 1.27,-1.283 2.173,-2.296 2.705,-3.028 z"
   id="path40"
   inkscape:connector-curvature="0" />
	<path
   style="fill:#64798a"
   d="m 49.338,202.098 v 2.862 h -7.906 v 4.617 c 0.786,-0.428 1.676,-0.646 2.679,-0.646 1.75,0 3.259,0.524 4.529,1.58 1.27,1.055 1.903,2.487 1.903,4.293 0,1.807 -0.659,3.299 -1.981,4.486 -1.322,1.196 -2.949,1.789 -4.878,1.789 -2.522,0 -4.534,-0.846 -6.035,-2.522 l 1.689,-2.305 c 0.144,0.14 0.336,0.306 0.576,0.507 0.244,0.2 0.737,0.462 1.488,0.794 0.75,0.332 1.575,0.488 2.469,0.488 0.89,0 1.706,-0.262 2.44,-0.803 0.733,-0.533 1.099,-1.318 1.099,-2.348 0,-1.021 -0.388,-1.815 -1.169,-2.383 -0.777,-0.559 -1.759,-0.846 -2.946,-0.846 -1.191,0 -2.322,0.297 -3.395,0.89 l -1.34,-1.449 v -9.006 h 10.778 z"
   id="path42"
   inkscape:connector-curvature="0" />
	<path
   style="fill:#64798a"
   d="m 21.267,156.926 v -2.811 h 10.966 v 2.461 l -4.53,5.071 c 1.715,0.053 3.055,0.593 4.02,1.624 0.964,1.03 1.449,2.251 1.449,3.683 0,1.911 -0.646,3.412 -1.942,4.503 -1.296,1.09 -2.963,1.641 -5.001,1.641 -2.038,0 -4.032,-0.655 -5.978,-1.964 l 1.34,-2.539 c 1.535,1.064 3.146,1.605 4.826,1.605 1.091,0 1.986,-0.253 2.693,-0.768 0.707,-0.506 1.06,-1.24 1.06,-2.199 0,-0.951 -0.392,-1.719 -1.178,-2.286 -0.79,-0.576 -1.881,-0.864 -3.273,-0.864 -0.698,0 -1.366,0.105 -2.012,0.297 v -2.408 l 4.346,-5.045 h -6.786 z"
   id="path44"
   inkscape:connector-curvature="0" />
	<path
   style="fill:#64798a"
   d="m 38.185,170.427 c -1.27,-1.762 -1.907,-4.119 -1.907,-7.06 0,-2.95 0.637,-5.306 1.907,-7.069 1.27,-1.763 3.181,-2.644 5.738,-2.644 2.552,0 4.464,0.881 5.734,2.644 1.27,1.763 1.907,4.119 1.907,7.069 0,2.941 -0.637,5.298 -1.907,7.06 -1.27,1.763 -3.181,2.644 -5.734,2.644 -2.557,0 -4.468,-0.881 -5.738,-2.644 z m 2.265,-12.131 c -0.742,1.283 -1.113,2.976 -1.113,5.071 0,2.086 0.371,3.779 1.113,5.062 0.742,1.291 1.898,1.929 3.474,1.929 1.571,0 2.719,-0.637 3.442,-1.911 0.725,-1.283 1.087,-2.976 1.087,-5.08 0,-2.112 -0.362,-3.805 -1.087,-5.088 -0.724,-1.274 -1.871,-1.912 -3.442,-1.912 -1.576,0.001 -2.733,0.638 -3.474,1.929 z"
   id="path46"
   inkscape:connector-curvature="0" />
	<path
   style="fill:#64798a"
   d="m 22.729,108.714 v -2.811 h 10.966 v 2.461 l -4.53,5.071 c 1.715,0.053 3.055,0.593 4.019,1.624 0.964,1.03 1.449,2.251 1.449,3.683 0,1.911 -0.645,3.412 -1.942,4.503 -1.296,1.09 -2.963,1.641 -5,1.641 -2.037,0 -4.032,-0.655 -5.979,-1.964 l 1.34,-2.539 c 1.536,1.064 3.147,1.606 4.827,1.606 1.09,0 1.985,-0.254 2.692,-0.769 0.707,-0.506 1.061,-1.24 1.061,-2.199 0,-0.951 -0.392,-1.719 -1.178,-2.286 -0.79,-0.576 -1.881,-0.864 -3.273,-0.864 -0.699,0 -1.366,0.105 -2.012,0.297 v -2.408 l 4.346,-5.045 h -6.786 z"
   id="path48"
   inkscape:connector-curvature="0" />
	<path
   style="fill:#64798a"
   d="m 49.19,105.877 v 2.862 h -7.906 v 4.617 c 0.786,-0.427 1.676,-0.645 2.679,-0.645 1.75,0 3.259,0.524 4.529,1.579 1.27,1.056 1.903,2.487 1.903,4.294 0,1.806 -0.659,3.299 -1.981,4.485 -1.322,1.196 -2.95,1.789 -4.879,1.789 -2.522,0 -4.534,-0.846 -6.035,-2.522 l 1.689,-2.304 c 0.144,0.139 0.336,0.306 0.576,0.506 0.244,0.201 0.737,0.463 1.488,0.794 0.75,0.332 1.575,0.489 2.469,0.489 0.89,0 1.706,-0.262 2.44,-0.803 0.733,-0.533 1.099,-1.318 1.099,-2.348 0,-1.021 -0.388,-1.816 -1.169,-2.383 -0.777,-0.559 -1.759,-0.847 -2.945,-0.847 -1.191,0 -2.322,0.297 -3.395,0.89 l -1.34,-1.449 v -9.006 H 49.19 Z"
   id="path50"
   inkscape:connector-curvature="0" />
	<path
   style="fill:#64798a"
   d="m 28.319,69.294 v -3.439 h 3.002 v 3.439 h 2.252 v 2.862 h -2.252 v 4.721 h -3.002 v -4.721 h -8.047 v -2.784 l 6.89,-11.233 h 3.46 l -6.786,11.154 h 4.483 z"
   id="path52"
   inkscape:connector-curvature="0" />
	<path
   style="fill:#64798a"
   d="m 38.102,74.451 c -1.27,-1.762 -1.907,-4.119 -1.907,-7.06 0,-2.95 0.637,-5.307 1.907,-7.069 1.27,-1.763 3.181,-2.644 5.738,-2.644 2.553,0 4.464,0.881 5.734,2.644 1.27,1.762 1.907,4.119 1.907,7.069 0,2.941 -0.637,5.298 -1.907,7.06 -1.27,1.763 -3.181,2.644 -5.734,2.644 -2.557,0.001 -4.468,-0.881 -5.738,-2.644 z M 40.366,62.32 c -0.742,1.283 -1.113,2.976 -1.113,5.071 0,2.086 0.371,3.779 1.113,5.062 0.742,1.291 1.898,1.929 3.474,1.929 1.571,0 2.719,-0.637 3.443,-1.911 0.724,-1.283 1.086,-2.976 1.086,-5.08 0,-2.112 -0.362,-3.805 -1.086,-5.088 -0.725,-1.274 -1.872,-1.912 -3.443,-1.912 -1.575,0.001 -2.732,0.638 -3.474,1.929 z"
   id="path54"
   inkscape:connector-curvature="0" />
</g>
<rect
   x="98.023712"
   y="270.05902"
   style="fill:#fcd462;stroke-width:0.95147413"
   width="50.42495"
   height="186.30591"
   id="rect58" />
<rect
   x="190.88838"
   y="187.86578"
   style="fill:#44c4a1;stroke-width:0.95147413"
   width="50.42495"
   height="268.49918"
   id="rect60" />
<rect
   x="283.78952"
   y="311.14182"
   style="fill:#e56353;stroke-width:0.95147413"
   width="50.42495"
   height="145.20883"
   id="rect62" />
<rect
   x="376.67545"
   y="239.92433"
   style="fill:#27a2db;stroke-width:0.95147413"
   width="50.42495"
   height="216.44508"
   id="rect64" />
<g
   id="g66">
</g>
<g
   id="g68">
</g>
<g
   id="g70">
</g>
<g
   id="g72">
</g>
<g
   id="g74">
</g>
<g
   id="g76">
</g>
<g
   id="g78">
</g>
<g
   id="g80">
</g>
<g
   id="g82">
</g>
<g
   id="g84">
</g>
<g
   id="g86">
</g>
<g
   id="g88">
</g>
<g
   id="g90">
</g>
<g
   id="g92">
</g>
<g
   id="g94">
</g>
<text
   xml:space="preserve"
   style="font-style:normal;font-weight:normal;font-size:40px;line-height:1.25;font-family:sans-serif;letter-spacing:0px;word-spacing:0px;fill:#008000;fill-opacity:1;stroke:none"
   x="181.25194"
   y="83.374931"
   id="text251"><tspan
     sodipodi:role="line"
     x="181.25194"
     y="83.374931"
     id="tspan249"
     style="font-style:normal;font-variant:normal;font-weight:bold;font-stretch:normal;font-size:74.66666412px;font-family:sans-serif;-inkscape-font-specification:'sans-serif Bold';fill:#000000">17</tspan></text>

</svg>