<?xml version="1.0" encoding="UTF-8" standalone="no"?>
<!-- Generator: Adobe Illustrator 19.0.0, SVG Export Plug-In . SVG Version: 6.00 Build 0)  -->

<svg
   xmlns:dc="http://purl.org/dc/elements/1.1/"
   xmlns:cc="http://creativecommons.org/ns#"
   xmlns:rdf="http://www.w3.org/1999/02/22-rdf-syntax-ns#"
   xmlns:svg="http://www.w3.org/2000/svg"
   xmlns="http://www.w3.org/2000/svg"
   xmlns:sodipodi="http://sodipodi.sourceforge.net/DTD/sodipodi-0.dtd"
   xmlns:inkscape="http://www.inkscape.org/namespaces/inkscape"
   version="1.1"
   id="Layer_1"
   x="0px"
   y="0px"
   viewBox="0 0 512 512"
   xml:space="preserve"
   sodipodi:docname="ai_upload-svgrepo-com.svg"
   width="512"
   height="512"
   inkscape:version="0.92.4 (f8dce91, 2019-08-02)"><metadata
   id="metadata45"><rdf:RDF><cc:Work
       rdf:about=""><dc:format>image/svg+xml</dc:format><dc:type
         rdf:resource="http://purl.org/dc/dcmitype/StillImage" /><dc:title></dc:title></cc:Work></rdf:RDF></metadata><defs
   id="defs43" /><sodipodi:namedview
   pagecolor="#ffffff"
   bordercolor="#666666"
   borderopacity="1"
   objecttolerance="10"
   gridtolerance="10"
   guidetolerance="10"
   inkscape:pageopacity="0"
   inkscape:pageshadow="2"
   inkscape:window-width="1920"
   inkscape:window-height="1012"
   id="namedview41"
   showgrid="false"
   inkscape:zoom="0.4609375"
   inkscape:cx="256"
   inkscape:cy="-4.6001252"
   inkscape:window-x="0"
   inkscape:window-y="0"
   inkscape:window-maximized="1"
   inkscape:current-layer="Layer_1" />
<path
   style="fill:#c9e8fa;stroke-width:1.13789713"
   d="m 505.73339,252.79455 c 0,9.68282 -1.17004,19.42589 -3.4643,28.97547 l -3.31233,13.79601 H 17.381225 L 14.0689,281.77002 c -2.294265,-9.54958 -3.464307,-19.29265 -3.464307,-28.97547 0,-65.36396 51.153285,-119.45658 117.006407,-127.23343 8.71888,-62.100042 63.87511,-110.234907 130.6636,-110.938205 0.49171,-0.01159 0.99458,-0.01159 1.49747,-0.01159 67.61992,0 123.64223,48.619177 132.22031,111.399355 28.50788,4.02862 54.80533,16.79344 75.3319,36.77663 24.76421,24.12073 38.40911,56.08088 38.40911,90.00724 z"
   id="path2"
   inkscape:connector-curvature="0" />
<polygon
   style="fill:#67bfff"
   points="319.2,424.358 370.221,424.358 256.094,272.646 141.967,424.358 192.978,424.358 192.978,512 319.2,512 "
   id="polygon4"
   transform="matrix(1.1175184,0,0,1.1586478,-35.188487,-103.28597)" />

<path
   style="fill:#b6e0f7;stroke-width:1.13789713"
   d="m 505.73339,252.79455 c 0,9.68282 -1.17004,19.42589 -3.4643,28.97547 l -3.31233,13.79601 H 258.2746 V 14.621757 c 0.49171,-0.01159 0.99458,-0.01159 1.49747,-0.01159 67.61992,0 123.64223,48.619178 132.22031,111.399343 28.50788,4.02863 54.80533,16.79346 75.3319,36.77665 24.76421,24.12188 38.40911,56.08203 38.40911,90.00839 z"
   id="path8"
   inkscape:connector-curvature="0" />
<g
   id="g10">
</g>
<g
   id="g12">
</g>
<g
   id="g14">
</g>
<g
   id="g16">
</g>
<g
   id="g18">
</g>
<g
   id="g20">
</g>
<g
   id="g22">
</g>
<g
   id="g24">
</g>
<g
   id="g26">
</g>
<g
   id="g28">
</g>
<g
   id="g30">
</g>
<g
   id="g32">
</g>
<g
   id="g34">
</g>
<g
   id="g36">
</g>
<g
   id="g38">
</g>
<polygon
   style="fill:#0088ff"
   points="319.2,512 319.2,424.358 370.221,424.358 256.094,272.646 256.094,512 "
   id="polygon6"
   transform="matrix(1.1175184,0,0,1.1586478,-35.188487,-103.28597)" /></svg>